# This file uses centimeters as units for non-parametric coordinates.

mtllib H_hexagon.mtl
g default
v 0.986638 -0.108834 -0.833338
v 0.426281 -0.101911 -0.983404
v 0.016245 -0.090168 -0.573159
v 0.166566 -0.085349 -0.012848
v 0.989705 0.085349 -0.835831
v 0.429348 0.092272 -0.985897
v 0.019312 0.104015 -0.575652
v 0.169633 0.108834 -0.015341
v 0.576602 -0.097092 -0.423093
v 0.579669 0.097092 -0.425586
vt 0.476563 0.166717
vt 0.421875 0.020934
vt 0.343750 0.156250
vt 0.421875 0.291566
vt 0.416667 0.312500
vt 0.458333 0.312500
vt 0.500000 0.312500
vt 0.476563 0.833753
vt 0.416667 0.688440
vt 0.458333 0.688440
vt 0.500000 0.688440
vt 0.421875 0.708434
vt 0.343750 0.843750
vt 0.421875 0.979066
vt 0.500000 0.150000
vt 0.500000 0.837500
vn 0.258463 -0.016482 -0.965881
vn 0.258463 -0.016482 -0.965881
vn 0.258463 -0.016482 -0.965881
vn 0.258463 -0.016482 -0.965881
vn -0.707255 0.002094 -0.706955
vn -0.707255 0.002094 -0.706955
vn -0.707255 0.002094 -0.706955
vn -0.707255 0.002094 -0.706955
vn -0.965719 0.018576 0.258925
vn -0.965719 0.018576 0.258925
vn -0.965719 0.018576 0.258925
vn -0.965719 0.018576 0.258925
vn -0.015790 -0.999793 0.012836
vn -0.015790 -0.999793 0.012836
vn -0.015790 -0.999793 0.012836
vn -0.015790 -0.999793 0.012836
vn -0.015790 -0.999793 0.012836
vn 0.015790 0.999793 -0.012836
vn 0.015790 0.999793 -0.012836
vn 0.015790 0.999793 -0.012836
vn 0.015790 0.999793 -0.012836
vn 0.015790 0.999793 -0.012836
vn 0.707255 -0.002094 0.706955
vn 0.707255 -0.002094 0.706955
vn 0.707255 -0.002094 0.706955
vn 0.707255 -0.002094 0.706955
vn 0.707255 -0.002094 0.706955
vn 0.707255 -0.002094 0.706955
vn 0.707255 -0.002094 0.706955
vn 0.707255 -0.002094 0.706955
s off
g pCylinder1
usemtl initialShadingGroup
f 1/1/1 2/5/2 6/9/3 5/8/4
f 2/5/5 3/6/6 7/10/7 6/9/8
f 3/6/9 4/7/10 8/11/11 7/10/12
s 1
f 2/2/13 1/1/14 9/15/15
f 3/3/16 2/2/13 9/15/15
f 4/4/17 3/3/16 9/15/15
s 2
f 5/8/18 6/14/19 10/16/20
f 6/14/19 7/13/21 10/16/20
f 7/13/21 8/12/22 10/16/20
s off
f 9/15/23 1/1/24 5/8/25 10/16/26
f 8/11/27 4/4/28 9/15/29 10/16/30
